<?xml version="1.0" standalone="no"?>
<!DOCTYPE svg PUBLIC "-//W3C//DTD SVG 20010904//EN"
 "http://www.w3.org/TR/2001/REC-SVG-20010904/DTD/svg10.dtd">
<svg version="1.0" xmlns="http://www.w3.org/2000/svg"
 width="419.000000pt" height="419.000000pt" viewBox="0 0 419.000000 419.000000"
 preserveAspectRatio="xMidYMid meet">
<metadata>
Created by potrace 1.11, written by Peter Selinger 2001-2013
</metadata>
<g transform="translate(0.000000,419.000000) scale(0.100000,-0.100000)"
fill="#000000" stroke="none">
<path d="M1290 3725 c-192 -79 -310 -194 -374 -364 -50 -131 -56 -190 -61
-536 -3 -274 -6 -300 -48 -381 -47 -93 -132 -146 -255 -161 l-53 -6 3 -80 3
-81 37 -2 c113 -8 196 -53 252 -139 52 -81 58 -120 61 -393 2 -140 6 -282 9
-316 26 -296 176 -498 444 -596 l79 -29 22 62 c12 33 18 64 14 67 -5 4 -24 13
-43 20 -186 71 -310 257 -326 485 -3 44 -7 184 -8 310 -4 257 -6 282 -40 365
-43 105 -116 187 -203 230 l-35 17 53 31 c65 36 98 67 136 124 37 55 59 107
80 190 3 13 7 129 9 258 2 129 5 271 8 315 15 244 131 421 327 500 l46 19 -21
63 c-11 35 -23 63 -26 63 -3 0 -43 -16 -90 -35z"/>
<path d="M3033 3698 l-19 -63 20 -9 c117 -51 188 -102 242 -175 39 -53 92
-183 100 -244 3 -23 7 -48 9 -55 3 -6 5 -130 5 -275 1 -144 6 -287 11 -317 28
-157 114 -282 236 -341 l44 -21 -56 -32 c-115 -64 -190 -170 -220 -310 -9 -43
-13 -149 -14 -322 -1 -256 -9 -346 -35 -421 -53 -150 -154 -263 -286 -318 -25
-10 -48 -22 -53 -25 -4 -4 2 -34 14 -67 l22 -61 52 18 c191 66 323 174 395
324 70 148 79 212 85 591 3 272 4 280 39 359 46 103 148 172 266 178 l50 3 0
81 0 81 -53 6 c-150 18 -228 81 -284 231 -13 32 -16 94 -18 296 -3 267 -9 368
-26 435 -5 22 -12 50 -14 61 -9 41 -56 136 -95 193 -66 99 -174 178 -311 230
-45 17 -82 31 -84 31 -2 0 -12 -28 -22 -62z"/>
<path d="M1505 3381 c-53 -22 -76 -88 -50 -142 16 -34 15 -38 -99 -441 -64
-224 -116 -418 -116 -431 0 -15 9 -28 24 -37 22 -11 55 -3 311 75 l288 88 78
-19 c42 -10 76 -21 73 -25 -2 -3 -46 -16 -99 -28 l-95 -22 -127 -106 c-71 -58
-137 -112 -148 -122 -11 -9 -63 -52 -115 -95 -52 -43 -98 -87 -102 -97 -4 -10
14 -102 42 -216 26 -109 58 -238 70 -288 12 -49 32 -134 46 -188 22 -90 22
-101 9 -128 -29 -55 5 -128 66 -140 93 -20 157 76 105 156 -9 13 -25 26 -36
30 -11 3 -20 9 -21 13 -1 9 -4 23 -24 107 -9 39 -18 77 -20 85 -2 8 -31 128
-64 265 -34 138 -61 255 -61 261 0 6 97 91 216 189 165 136 226 180 257 187
22 5 41 7 43 6 1 -2 -33 -40 -76 -85 -43 -44 -83 -91 -90 -102 -10 -20 -8 -48
15 -161 3 -14 8 -38 10 -55 3 -16 10 -56 16 -87 5 -32 12 -70 15 -85 3 -16 12
-66 20 -113 9 -47 18 -96 20 -110 3 -14 12 -63 20 -110 9 -47 18 -94 20 -105
2 -11 8 -41 12 -67 7 -36 6 -50 -5 -61 -8 -8 -17 -32 -20 -54 -4 -34 -1 -45
23 -71 68 -74 174 -33 174 67 0 31 -7 46 -31 70 -17 17 -32 41 -34 54 -3 23
-31 173 -40 217 -3 14 -8 45 -11 70 -3 25 -8 48 -10 51 -1 3 -8 32 -13 65 -6
32 -15 85 -21 117 -17 94 -30 170 -36 207 -3 19 -9 53 -14 75 -6 27 -5 44 3
55 34 43 161 169 168 165 4 -3 0 -26 -8 -52 -11 -33 -16 -88 -16 -173 0 -112
2 -132 26 -193 41 -105 118 -207 157 -207 53 0 145 145 175 275 17 74 13 222
-9 297 l-16 53 85 -87 84 -87 -30 -163 c-16 -90 -38 -210 -49 -268 -28 -154
-59 -321 -64 -350 -15 -88 -21 -106 -37 -118 -10 -7 -24 -30 -30 -51 -15 -50
8 -96 58 -117 94 -40 172 62 118 154 -16 27 -16 35 -1 123 25 148 26 153 31
179 11 55 16 78 30 160 24 136 24 137 55 304 17 87 30 164 30 171 0 7 -40 55
-89 106 -49 52 -88 95 -86 97 2 2 22 -2 45 -8 32 -9 98 -57 256 -187 118 -97
214 -182 214 -189 0 -7 -16 -77 -36 -156 -19 -79 -37 -152 -39 -163 -3 -11
-11 -47 -20 -80 -8 -33 -28 -117 -44 -186 -27 -114 -34 -130 -67 -163 -33 -33
-36 -40 -31 -78 13 -97 133 -128 181 -46 23 37 23 78 2 111 -14 21 -14 29 -2
73 11 39 65 259 81 334 2 8 24 98 49 199 24 101 41 191 38 201 -4 10 -116 108
-250 218 l-242 200 -90 22 c-50 12 -90 26 -90 31 0 12 79 33 130 33 27 0 118
-23 230 -58 343 -107 351 -109 377 -95 15 8 23 21 23 37 0 14 -52 208 -115
430 -109 382 -115 406 -100 428 56 85 -23 185 -121 153 -66 -21 -84 -124 -28
-168 21 -17 41 -74 130 -387 58 -201 104 -367 102 -368 -2 -2 -113 31 -247 73
l-243 75 -79 -20 -79 -20 18 20 c9 11 38 43 65 71 l47 51 149 -1 c82 -1 158 2
169 6 36 14 33 47 -12 133 -128 245 -170 322 -177 330 -4 4 -5 32 -2 60 7 69
-21 106 -88 113 -41 5 -48 2 -78 -28 -29 -30 -32 -39 -28 -76 5 -50 20 -71 64
-89 26 -11 43 -36 99 -141 37 -71 76 -143 86 -161 10 -18 18 -35 18 -37 0 -3
-56 -5 -124 -5 l-123 0 -51 -52 c-28 -29 -60 -63 -70 -75 -24 -28 -32 -29 -32
-3 0 11 -14 34 -31 52 -21 23 -27 26 -20 11 6 -12 11 -35 11 -52 0 -26 -4 -31
-24 -31 -14 0 -32 -10 -40 -22 l-16 -22 -20 22 c-12 12 -32 22 -46 22 -24 0
-26 3 -22 33 3 17 9 41 13 52 8 18 7 19 -9 6 -22 -18 -57 -86 -49 -95 4 -3 2
-6 -3 -6 -4 0 -19 12 -32 28 -13 15 -46 51 -74 80 l-50 52 -124 0 c-68 0 -124
3 -123 8 0 4 40 79 87 167 67 123 92 161 109 163 12 2 33 14 46 28 94 94 -35
234 -135 146 -28 -26 -31 -35 -31 -82 1 -32 -6 -64 -17 -84 -98 -174 -202
-382 -202 -402 0 -44 21 -49 190 -49 l157 0 35 -40 c19 -22 37 -42 40 -45 3
-3 15 -17 28 -31 l22 -25 -78 20 -79 20 -224 -68 c-123 -37 -234 -71 -246 -76
-13 -5 -23 -7 -23 -4 0 3 46 166 101 362 95 332 104 359 135 390 19 18 35 41
36 50 0 9 2 24 3 32 2 24 -23 68 -46 81 -30 15 -70 20 -94 10z"/>
</g>
</svg>
